HIERARCHY
ROOT SimulationBone
{
	OFFSET 0.000000 0.000000 0.000000
	CHANNELS 6 Xposition Yposition Zposition Zrotation Yrotation Xrotation 
	JOINT Hips
	{
		OFFSET 0.000000 0.000000 0.000000
		CHANNELS 6 Xposition Yposition Zposition Zrotation Yrotation Xrotation 
		JOINT LeftUpLeg
		{
			OFFSET 0.103456 1.857840 10.548501
			CHANNELS 3 Zrotation Yrotation Xrotation
			JOINT LeftLeg
			{
				OFFSET 43.499992 -0.000038 -0.000006
				CHANNELS 3 Zrotation Yrotation Xrotation
				JOINT LeftFoot
				{
					OFFSET 42.372196 0.000031 0.000002
					CHANNELS 3 Zrotation Yrotation Xrotation
					JOINT LeftToe
					{
						OFFSET 17.299974 -0.000010 -0.000017
						CHANNELS 3 Zrotation Yrotation Xrotation
						End Site
						{
							OFFSET 0.000000 0.000000 0.000000
						}
					}
				}
			}
		}
		JOINT RightUpLeg
		{
			OFFSET 0.103462 1.857831 -10.548510
			CHANNELS 3 Zrotation Yrotation Xrotation
			JOINT RightLeg
			{
				OFFSET 43.500046 -0.000015 0.000008
				CHANNELS 3 Zrotation Yrotation Xrotation
				JOINT RightFoot
				{
					OFFSET 42.372265 -0.000015 0.000004
					CHANNELS 3 Zrotation Yrotation Xrotation
					JOINT RightToe
					{
						OFFSET 17.299995 -0.000004 0.000013
						CHANNELS 3 Zrotation Yrotation Xrotation
						End Site
						{
							OFFSET 0.000000 0.000000 0.000000
						}
					}
				}
			}
		}
		JOINT Spine
		{
			OFFSET 6.901966 -2.603716 -0.000002
			CHANNELS 3 Zrotation Yrotation Xrotation
			JOINT Spine1
			{
				OFFSET 12.588102 -0.000001 0.000005
				CHANNELS 3 Zrotation Yrotation Xrotation
				JOINT Spine2
				{
					OFFSET 12.343201 -0.000023 -0.000011
					CHANNELS 3 Zrotation Yrotation Xrotation
					JOINT Neck
					{
						OFFSET 25.832901 0.000011 0.000007
						CHANNELS 3 Zrotation Yrotation Xrotation
						JOINT Head
						{
							OFFSET 11.766600 -0.000002 0.000002
							CHANNELS 3 Zrotation Yrotation Xrotation
							End Site
							{
								OFFSET 0.000000 0.000000 0.000000
							}
						}
					}
					JOINT LeftShoulder
					{
						OFFSET 19.745907 -1.480350 6.000119
						CHANNELS 3 Zrotation Yrotation Xrotation
						JOINT LeftArm
						{
							OFFSET 11.284122 -0.000013 -0.000023
							CHANNELS 3 Zrotation Yrotation Xrotation
							JOINT LeftForeArm
							{
								OFFSET 33.000057 0.000005 0.000025
								CHANNELS 3 Zrotation Yrotation Xrotation
								JOINT LeftHand
								{
									OFFSET 25.199997 0.000020 0.000019
									CHANNELS 3 Zrotation Yrotation Xrotation
									End Site
									{
										OFFSET 0.000000 0.000000 0.000000
									}
								}
							}
						}
					}
					JOINT RightShoulder
					{
						OFFSET 19.746096 -1.480352 -6.000062
						CHANNELS 3 Zrotation Yrotation Xrotation
						JOINT RightArm
						{
							OFFSET 11.284150 0.000007 -0.000012
							CHANNELS 3 Zrotation Yrotation Xrotation
							JOINT RightForeArm
							{
								OFFSET 33.000092 0.000019 0.000012
								CHANNELS 3 Zrotation Yrotation Xrotation
								JOINT RightHand
								{
									OFFSET 25.199797 0.000118 0.000427
									CHANNELS 3 Zrotation Yrotation Xrotation
									End Site
									{
										OFFSET 0.000000 0.000000 0.000000
									}
								}
							}
						}
					}
				}
			}
		}
	}
}
MOTION
Frames: 13
Frame Time: 0.033333
90.738058 0.000000 47.012671 0.000000 112.805377 0.000000 -1.713119 90.107239 -0.030471 90.241520 0.564741 163.758373 173.223802 4.571899 172.219832 -33.355652 4.288461 -2.699198 94.704350 1.670690 -0.764685 21.454560 0.003117 0.000020 148.092271 3.839097 -171.906531 -58.344712 -2.606052 8.878869 76.851144 -4.444339 6.473786 21.454555 -0.003095 0.000001 6.758397 -0.267871 -0.356931 3.505649 -0.524926 -0.721698 3.187572 -0.529421 -0.718511 6.852275 2.187059 2.390412 -9.347487 -1.756472 3.305489 175.476070 -73.719605 3.271981 -2.338625 54.762121 2.556339 -39.783608 -13.712028 1.395910 2.097170 -12.431046 -8.950226 -143.134797 84.079369 38.803196 -11.435583 -64.582369 -35.510099 -25.679303 5.290420 -0.520126 8.387525 3.804661 7.812336 
91.381453 0.000000 41.777168 0.000000 110.470342 0.000000 -2.217450 91.370247 0.031149 88.401710 0.762422 168.981668 175.686932 2.921494 172.733818 -29.878953 4.326303 -1.537692 91.156415 0.774790 -1.412693 21.454553 0.003104 0.000017 146.422481 3.149689 -172.565453 -47.307044 -2.453196 7.798707 75.922013 -3.841670 5.830529 21.454558 -0.003110 -0.000001 6.504314 -0.191777 -0.980511 2.998872 -0.358509 -1.965577 2.680987 -0.370511 -1.963390 4.746092 5.047151 1.877049 -9.785846 -3.178081 3.737430 166.865975 -73.387493 12.111080 -2.724319 55.967977 14.262430 -41.989677 -13.965132 1.471598 1.256255 -9.932143 -6.038232 -140.314994 82.202679 41.728983 6.562477 -61.606168 -58.775417 -27.774438 6.581936 -0.640702 5.424452 -1.096629 -6.665925 
91.904812 0.000000 36.638446 0.000000 108.238663 0.000000 -2.717663 92.019852 0.226775 86.812468 0.279746 174.629126 177.190256 1.668902 172.993283 -27.989142 4.270436 0.417590 87.881421 -0.661279 -1.763467 21.454555 0.003126 0.000018 144.855704 3.916903 -173.945479 -37.302682 -2.390887 6.710225 75.119069 -2.982190 6.072492 21.454553 -0.003088 0.000000 6.358144 -0.327695 -1.784859 2.713094 -0.614308 -3.576801 2.395653 -0.636006 -3.573034 1.516772 7.476235 1.486401 -9.738669 -4.571685 4.374480 160.248027 -74.402207 18.835952 -6.565731 55.823191 23.669872 -47.130774 -13.065487 1.561606 0.051265 -10.743356 -1.675370 -133.284189 80.809416 48.911166 21.035007 -57.366185 -75.767500 -31.409144 7.625111 -0.777026 4.127276 -0.942691 -15.614014 
92.315511 0.000000 31.589833 0.000000 106.122786 0.000000 -3.179221 92.145767 0.466882 85.286854 0.347347 179.923744 178.356607 0.066995 173.875579 -26.927461 4.192511 1.989477 85.962521 -1.884035 -2.282474 21.454557 0.003113 0.000016 143.392022 4.551297 -176.370470 -28.661868 -1.910455 6.207479 75.183068 -2.987714 4.876253 21.454551 -0.003087 0.000000 6.257051 -0.402032 -2.574208 2.518219 -0.749238 -5.156460 2.201499 -0.780455 -5.151865 -1.581441 10.812662 0.979272 -9.657778 -7.227708 5.606203 155.631079 -75.023597 23.516130 -12.274966 53.892009 29.994649 -54.018576 -13.380955 1.806480 -2.349475 -9.993378 4.222761 -128.115211 79.647594 54.209965 32.437453 -51.859820 -85.490964 -34.739930 7.861361 -0.862306 3.353845 1.451571 -15.319235 
92.620925 0.000000 26.624653 0.000000 104.132364 0.000000 -3.387002 91.617126 0.778563 84.609571 0.633282 -175.713441 -179.754337 -1.571904 176.407653 -26.675364 3.563056 2.230349 85.428133 -2.228815 -3.148580 21.454563 0.003112 0.000016 143.226909 5.042000 -179.581273 -21.236603 -0.712479 7.411847 75.789234 -3.815640 5.145503 21.454553 -0.003098 -0.000002 6.347048 -0.394350 -3.204223 2.701425 -0.715323 -6.416718 2.385482 -0.754114 -6.412316 -3.983360 13.591965 0.552199 -9.959923 -9.639982 6.846970 152.436995 -75.721082 26.729008 -18.763957 51.712527 29.365524 -62.145439 -11.706029 1.987953 -3.323906 -6.676027 10.174850 -120.615212 79.328822 61.823293 42.524228 -46.877088 -88.168515 -36.109393 7.348764 -0.858943 3.479848 0.867319 -12.235409 
92.828430 0.000000 21.736234 0.000000 102.274310 0.000000 -3.418958 90.473534 0.997582 84.037463 0.808778 -173.091158 -177.550808 -2.768204 177.734363 -26.815997 3.340970 2.080588 86.082172 -2.282943 -4.081750 21.454558 0.003105 0.000018 143.050553 5.075384 178.784382 -16.719917 -0.129264 7.433971 76.875275 -3.071607 8.179911 21.454553 -0.003089 0.000002 6.366658 -0.403262 -3.493829 2.742788 -0.725297 -6.996186 2.427243 -0.767556 -6.991721 -4.447545 15.419857 0.702202 -11.717586 -10.784778 8.062486 147.253933 -77.026912 31.914055 -25.608724 50.291144 26.382084 -69.864441 -10.028511 2.177698 -3.369856 -3.933493 10.885153 -107.972143 79.810993 74.554172 51.641401 -42.444578 -90.351395 -36.501094 7.647358 -0.887890 3.944174 -0.179692 -7.382115 
92.945401 0.000000 16.917902 0.000000 100.552955 0.000000 -3.115395 88.897171 1.267705 84.562825 0.880041 -171.912346 -174.442430 -3.991393 176.595388 -28.074704 3.508692 2.330268 86.476451 -2.546340 -4.622254 21.454558 0.003099 0.000019 143.486319 4.226300 179.855656 -16.384207 -0.280274 5.891100 78.520312 -2.427298 6.865513 21.454555 -0.003087 0.000002 6.583075 -0.448362 -3.541227 3.178272 -0.800835 -7.093410 2.862801 -0.843702 -7.088478 -4.119281 16.815263 1.052944 -12.868748 -11.832072 9.202472 144.730930 -77.323076 34.454094 -31.313176 48.022374 21.867554 -75.855289 -8.395891 2.314389 -4.268881 -3.207003 11.116559 -99.165085 80.438810 83.369159 57.387140 -38.032952 -89.646171 -36.399762 7.238355 -0.858249 4.148357 0.730101 -5.785761 
92.979213 0.000000 12.162983 0.000000 98.970311 0.000000 -2.891412 87.116043 1.644028 85.039648 1.411500 -171.124454 -172.803636 -5.939892 173.857315 -31.866528 3.910148 3.178473 86.054872 -3.224112 -4.889637 21.454553 0.003111 0.000016 143.505512 2.849694 -176.793860 -20.434755 -0.512197 4.940240 79.688821 -1.568414 7.878475 21.454555 -0.003086 0.000001 6.742953 -0.370194 -3.505652 3.492692 -0.635867 -7.020816 3.177177 -0.678280 -7.016895 -3.331100 17.632273 1.700901 -13.951189 -12.685339 10.369317 143.629931 -77.563621 35.552965 -36.227819 46.065419 15.975165 -80.857180 -6.679388 2.410070 -3.709341 -2.013444 11.766523 -95.608851 80.961886 86.909198 60.081124 -33.988305 -89.957170 -36.575496 7.381341 -0.871881 2.856304 3.613661 -5.500360 
92.937242 0.000000 7.464805 0.000000 97.526374 0.000000 -2.917318 86.047409 2.144790 85.315744 3.424834 -170.275952 -173.804750 -9.303302 171.991376 -38.402622 4.566921 3.903691 81.581685 -3.888528 -4.429411 21.454555 0.003098 0.000017 142.775064 0.659697 -171.135594 -25.157443 -1.358479 3.425149 73.271052 -0.476799 6.443108 21.454553 -0.003089 0.000001 6.838379 0.023396 -3.428308 3.659413 0.153828 -6.854180 3.343788 0.112400 -6.854991 -2.713903 18.147973 2.178286 -14.409633 -13.622091 11.267208 141.985112 -78.410900 37.157950 -41.186287 45.775846 8.567784 -83.862476 -5.645457 2.469406 -3.070491 0.198457 12.293084 -95.153790 81.256677 87.341823 60.563158 -31.908506 -90.576764 -37.136350 7.886006 -0.918684 2.598883 5.005304 -6.067595 
92.826862 0.000000 2.816694 0.000000 96.219448 0.000000 -2.988585 84.951447 2.679060 85.719676 5.619757 -170.511737 -177.550440 -12.736694 169.545840 -49.764420 6.596872 3.597342 75.278636 -4.627404 -6.369913 21.454557 0.003113 0.000013 140.189100 -1.721003 -169.804472 -33.562716 0.111940 3.093490 70.869811 -2.827293 -1.697214 21.454550 -0.003092 0.000000 7.038345 0.519107 -3.108122 4.033142 1.145078 -6.196767 3.717012 1.107572 -6.203532 -1.976691 17.596039 2.777565 -14.956938 -13.357217 11.613560 141.639846 -78.287922 37.516177 -45.150774 46.330181 0.614406 -84.349278 -5.532950 2.482973 -2.152091 1.251471 13.074287 -99.027880 81.236733 83.437994 58.269088 -32.469644 -90.088597 -36.070338 7.759173 -0.885411 1.859468 5.855156 -6.894829 
92.655450 0.000000 -1.788024 0.000000 95.046461 0.000000 -2.962619 83.998810 2.941442 86.476639 6.469432 -171.716651 177.749772 -14.235903 169.517318 -62.790660 7.467255 1.404950 67.343391 -3.619031 -6.372067 21.454565 0.003112 0.000013 139.584000 -2.923298 -170.070399 -41.275246 2.275288 2.452743 76.204318 -3.071843 -4.394723 21.454555 -0.003092 0.000000 7.416794 0.779657 -2.804315 4.780586 1.673611 -5.574827 4.463986 1.639835 -5.584796 -0.509993 16.606321 3.848990 -16.301418 -12.679938 12.207486 144.229976 -77.413200 34.955074 -47.964242 47.601323 -7.249794 -82.365135 -6.824655 2.485971 -2.210938 0.874524 12.767551 -108.029817 81.798694 74.333973 53.237442 -36.237821 -87.427412 -33.380531 7.166450 -0.786731 1.540040 5.557014 -6.540415 
92.430380 0.000000 -6.356023 0.000000 94.003256 0.000000 -3.205342 84.070801 3.065683 87.521494 6.674609 -171.989079 172.527587 -13.423798 173.238978 -73.131559 6.832310 -2.944663 63.652377 -1.714267 -8.838321 21.454568 0.003115 0.000017 142.056091 -3.689599 -165.603578 -44.172838 0.206975 0.013253 80.137182 -1.466765 -5.655958 21.454551 -0.003096 0.000000 7.837814 0.812491 -2.667349 5.622958 1.752971 -5.292834 5.306184 1.720886 -5.303293 0.090510 15.059437 4.276223 -14.720045 -11.626758 11.634327 142.818135 -76.750207 36.434083 -50.452633 49.306074 -13.583434 -77.380668 -9.231132 2.437480 -2.097167 -4.194223 8.888256 -114.315913 81.798646 68.002968 45.989419 -42.957191 -83.612922 -30.545620 6.804941 -0.705709 2.340025 5.082056 -7.883602 
92.159027 0.000000 -10.893975 0.000000 93.084849 0.000000 -3.594192 84.960876 3.114514 87.374873 6.287282 -172.063589 166.002530 -11.097505 176.867243 -80.445271 6.154867 -4.667488 66.749233 -0.412973 -9.393893 21.454563 0.003114 0.000018 144.888735 -3.874410 -165.441074 -44.207938 0.378511 -0.777779 82.652590 -0.897816 -6.131529 21.454551 -0.003093 -0.000001 7.808809 0.686053 -2.572487 5.571919 1.494523 -5.109540 5.255108 1.463551 -5.118446 1.592503 12.792546 4.733814 -12.621182 -9.593354 10.523875 143.199943 -76.879400 36.037106 -52.777937 51.021014 -15.858963 -69.560778 -12.407601 2.329327 -1.386882 -14.307707 1.877996 -126.379878 81.345600 55.860887 35.820965 -49.429977 -76.785096 -28.334971 6.464696 -0.642589 1.316920 7.186616 -8.701164 
